<svg xmlns="http://www.w3.org/2000/svg" xmlns:xlink="http://www.w3.org/1999/xlink" viewBox="0 0 200.1 200.1"><defs><style>.cls-1{fill:none;}.cls-2{fill:#c6c6c6;}.cls-3{isolation:isolate;}.cls-4{opacity:0.18;mix-blend-mode:multiply;fill:url(#New_Pattern_Swatch_1);}</style><pattern id="New_Pattern_Swatch_1" data-name="New Pattern Swatch 1" width="49.35" height="49.43" patternTransform="translate(255.81 -87.57) scale(1.02)" patternUnits="userSpaceOnUse" viewBox="0 0 49.35 49.43"><rect class="cls-1" width="49.35" height="49.43"/><path class="cls-2" d="M48.79,73.49l.85-21.55-7.87,3.42L41,67.85l7.79,5.64m-10-4.61.93-14.94,12.13-5.27L50.74,77.5Z"/><polygon class="cls-2" points="1.11 65.93 16.9 58.55 2.8 48.84 2.55 48.67 1.36 50.41 1.61 50.58 12.46 58.06 0.18 64.03 1.11 65.93"/><path class="cls-2" d="M-.56,73.49.29,51.94l-7.87,3.42-.77,12.49,7.79,5.64m-10-4.61.92-14.94L2.54,48.67,1.4,77.5Z"/><path class="cls-2" d="M48.79,48.77l.85-21.54-7.87,3.41L41,43.14l7.79,5.63m-10-4.6.93-15L51.88,24,50.74,52.79Z"/><polygon class="cls-2" points="25.79 53.57 41.58 46.2 27.48 36.48 27.23 36.31 26.04 38.05 26.28 38.22 37.14 45.7 24.85 51.67 25.79 53.57"/><path class="cls-2" d="M24.12,61.13,25,39.59,17.1,43l-.77,12.5,7.79,5.63m-10-4.6.92-15,12.14-5.27L26.07,65.14Z"/><polygon class="cls-2" points="1.11 41.22 16.9 33.84 2.8 24.13 2.55 23.95 1.36 25.7 1.61 25.87 12.46 33.34 0.18 39.32 1.11 41.22"/><path class="cls-2" d="M-.56,48.77.29,27.23l-7.87,3.41-.77,12.5,7.79,5.63m-10-4.6.92-15L2.54,24,1.4,52.79Z"/><path class="cls-2" d="M48.79,24.06l.85-21.55L41.77,5.93,41,18.43l7.79,5.63m-10-4.6.93-14.95L51.88-.76,50.74,28.07Z"/><polygon class="cls-2" points="25.79 28.86 41.58 21.48 27.48 11.77 27.23 11.6 26.04 13.34 26.28 13.51 37.14 20.99 24.85 26.96 25.79 28.86"/><path class="cls-2" d="M24.12,36.41,25,14.87,17.1,18.29l-.77,12.49,7.79,5.63m-10-4.6.92-14.94L27.21,11.6,26.07,40.43Z"/><polygon class="cls-2" points="1.11 16.5 16.9 9.13 2.8 -0.59 2.55 -0.76 1.36 0.98 1.61 1.15 12.46 8.63 0.18 14.6 1.11 16.5"/><path class="cls-2" d="M-.56,24.06.29,2.51-7.58,5.93l-.77,12.5,7.79,5.63m-10-4.6L-9.6,4.51,2.54-.76,1.4,28.07Z"/><path class="cls-2" d="M48.79-.66l.85-21.54-7.87,3.42L41-6.29,48.79-.66m-10-4.6.93-14.95,12.13-5.26L50.74,3.36Z"/><polygon class="cls-2" points="25.79 4.15 41.58 -3.23 27.48 -12.95 27.23 -13.12 26.04 -11.37 26.28 -11.21 37.14 -3.73 24.85 2.25 25.79 4.15"/><path class="cls-2" d="M24.12,11.7,25-9.84,17.1-6.43l-.77,12.5,7.79,5.63m-10-4.6.92-14.95,12.14-5.26L26.07,15.72Z"/><path class="cls-2" d="M-.56-.66.29-22.2l-7.87,3.42L-8.35-6.29-.56-.66m-10-4.6.92-14.95L2.54-25.47,1.4,3.36Z"/></pattern></defs><g class="cls-3"><g id="Layer_2" data-name="Layer 2"><g id="Layer_1-2" data-name="Layer 1"><rect class="cls-4" width="200.1" height="200.1"/></g></g></g></svg>